<svg width="16" height="16" viewBox="0 0 16 16" fill="none" xmlns="http://www.w3.org/2000/svg">
<g clip-path="url(#clip0_336_958)">
<path d="M11.7336 10.3467C12.4092 9.45778 12.8181 8.47111 12.9603 7.38667C13.1025 6.30222 12.9781 5.24444 12.587 4.21333C12.1958 3.18222 11.5736 2.30222 10.7203 1.57333C9.86695 0.844444 8.90695 0.364444 7.84029 0.133333C6.77362 -0.0977783 5.71584 -0.0533333 4.66695 0.266666C3.61807 0.586666 2.69362 1.13778 1.89362 1.92C1.09362 2.70222 0.54251 3.61778 0.240287 4.66667C-0.0619349 5.71556 -0.0974905 6.77333 0.133621 7.84C0.364732 8.90667 0.844732 9.86667 1.57362 10.72C2.30251 11.5733 3.18251 12.1956 4.21362 12.5867C5.24473 12.9778 6.30251 13.1022 7.38695 12.96C8.4714 12.8178 9.45807 12.4089 10.347 11.7333L14.2936 15.7333C14.4714 15.9111 14.7025 16 14.987 16C15.2714 16 15.5114 15.9022 15.707 15.7067C15.9025 15.5111 16.0003 15.2711 16.0003 14.9867C16.0003 14.7022 15.9114 14.4711 15.7336 14.2933L11.7336 10.3467ZM12.0003 6.50667C12.0003 7.50222 11.7514 8.41778 11.2536 9.25333C10.7558 10.0889 10.0892 10.7556 9.25362 11.2533C8.41807 11.7511 7.50251 12 6.50695 12C5.5114 12 4.58695 11.7511 3.73362 11.2533C2.88029 10.7556 2.21362 10.0889 1.73362 9.25333C1.25362 8.41778 1.01362 7.50222 1.01362 6.50667C1.01362 5.51111 1.25362 4.58667 1.73362 3.73333C2.21362 2.88 2.88029 2.21333 3.73362 1.73333C4.58695 1.25333 5.5114 1.01333 6.50695 1.01333C7.50251 1.01333 8.41807 1.25333 9.25362 1.73333C10.0892 2.21333 10.7558 2.88 11.2536 3.73333C11.7514 4.58667 12.0003 5.51111 12.0003 6.50667Z" fill="#F4F4F6"/>
</g>
<defs>
<clipPath id="clip0_336_958">
<rect width="16" height="16" fill="white" transform="matrix(1 0 0 -1 0 16)"/>
</clipPath>
</defs>
</svg>
