<svg width="31" height="31" viewBox="0 0 31 31" fill="none" xmlns="http://www.w3.org/2000/svg">
<g clip-path="url(#clip0_370_4035)">
<g clip-path="url(#clip1_370_4035)">
<path fill-rule="evenodd" clip-rule="evenodd" d="M29.6667 13.9266C29.6717 15.882 29.2149 17.8109 28.3333 19.5563C26.2014 23.8219 21.8428 26.5174 17.0741 26.5192C15.1187 26.5243 13.1898 26.0675 11.4444 25.1859L3 28.0007L5.81481 19.5563C4.93323 17.8109 4.47638 15.882 4.48148 13.9266C4.48332 9.1579 7.17877 4.79931 11.4444 2.6674C13.1898 1.78582 15.1187 1.32897 17.0741 1.33403H17.8148C24.2086 1.68681 29.3139 6.79212 29.6667 13.1859V13.9266Z" stroke="#111111" stroke-width="1.25" stroke-linecap="round" stroke-linejoin="round"/>
<path d="M11.666 14H12.3327" stroke="#111111" stroke-width="2" stroke-linecap="round" stroke-linejoin="round"/>
<path d="M16.666 14H17.3327" stroke="#111111" stroke-width="2" stroke-linecap="round" stroke-linejoin="round"/>
<path d="M21.666 14H22.3327" stroke="#111111" stroke-width="2" stroke-linecap="round" stroke-linejoin="round"/>
</g>
</g>
<defs>
<clipPath id="clip0_370_4035">
<rect width="31" height="31" fill="white"/>
</clipPath>
<clipPath id="clip1_370_4035">
<rect width="31" height="31" fill="white"/>
</clipPath>
</defs>
</svg>
