<svg width="24" height="24" viewBox="0 0 24 24" fill="none" xmlns="http://www.w3.org/2000/svg">
<rect width="24" height="24" rx="12" fill="#FFE5E5"/>
<path d="M14.9688 7.71896C15.0222 7.66564 15.0855 7.62335 15.1551 7.59449C15.2248 7.56564 15.2994 7.55079 15.3748 7.55079C15.4502 7.55079 15.5249 7.56564 15.5946 7.59449C15.6642 7.62335 15.7275 7.66564 15.7808 7.71896C15.8342 7.77227 15.8765 7.83557 15.9053 7.90523C15.9342 7.97489 15.949 8.04956 15.949 8.12496C15.949 8.20036 15.9342 8.27502 15.9053 8.34468C15.8765 8.41435 15.8342 8.47764 15.7808 8.53096L12.3128 12L15.7808 15.469L15.8548 15.559C15.9272 15.6695 15.9593 15.8015 15.9457 15.9329C15.9321 16.0643 15.8737 16.187 15.7803 16.2804C15.6869 16.3738 15.5642 16.4322 15.4328 16.4458C15.3014 16.4594 15.1694 16.4273 15.0588 16.355L14.9688 16.281L11.4998 12.812L8.03084 16.282C7.97746 16.3353 7.9141 16.3776 7.84438 16.4064C7.77466 16.4352 7.69994 16.45 7.62449 16.45C7.54904 16.4499 7.47434 16.435 7.40466 16.4061C7.33497 16.3772 7.27166 16.3348 7.21834 16.2815C7.16503 16.2281 7.12275 16.1647 7.09392 16.095C7.06509 16.0253 7.05027 15.9506 7.05032 15.8751C7.05037 15.7997 7.06527 15.725 7.09419 15.6553C7.1231 15.5856 7.16546 15.5223 7.21884 15.469L10.6878 12L7.21784 8.53096L7.14484 8.44096C7.07194 8.33045 7.0394 8.19817 7.05272 8.06646C7.06605 7.93474 7.12441 7.81166 7.21796 7.71799C7.31152 7.62432 7.43453 7.5658 7.56623 7.55231C7.69793 7.53882 7.83025 7.57119 7.94084 7.64396L8.03084 7.71896L11.4998 11.187L14.9688 7.71896Z" fill="#E02A2A"/>
</svg>
